<?xml version="1.0" standalone="no"?>
<!DOCTYPE svg PUBLIC "-//W3C//DTD SVG 20010904//EN"
 "http://www.w3.org/TR/2001/REC-SVG-20010904/DTD/svg10.dtd">
<svg version="1.0" xmlns="http://www.w3.org/2000/svg"
 width="352.000000pt" height="306.000000pt" viewBox="0 0 352.000000 306.000000"
 preserveAspectRatio="xMidYMid meet">
<metadata>
Created by potrace 1.14, written by Peter Selinger 2001-2017
</metadata>
<g transform="translate(0.000000,306.000000) scale(0.100000,-0.100000)"
fill="#000000" stroke="none">
<path d="M0 1530 l0 -1530 1760 0 1760 0 0 1530 0 1530 -1760 0 -1760 0 0
-1530z m1050 145 c-110 -111 -156 -150 -134 -113 4 7 3 8 -5 4 -6 -4 -9 -11
-6 -16 3 -5 -9 -23 -27 -39 l-33 -30 -163 -1 c-108 0 -161 3 -157 10 4 6 12 7
18 4 7 -4 9 -4 5 1 -11 11 12 36 25 28 5 -3 7 -1 4 5 -9 13 202 214 217 205 6
-3 8 -2 3 2 -4 5 5 21 20 37 l27 28 165 0 166 0 -125 -125z m740 4 c0 -7 -29
-63 -65 -125 -36 -62 -65 -116 -65 -119 0 -3 29 -5 65 -5 51 0 65 -3 65 -15 0
-12 -16 -15 -85 -15 -66 0 -85 3 -85 14 0 7 29 65 65 127 l65 114 -65 3 c-49
2 -65 7 -65 17 0 12 17 15 85 15 57 0 85 -4 85 -11z m220 -4 c0 -10 -16 -15
-62 -17 l-63 -3 0 -45 0 -45 48 -3 c33 -2 47 -7 47 -18 0 -10 -13 -14 -50 -14
l-50 0 0 -50 0 -50 65 0 c51 0 65 -3 65 -15 0 -12 -16 -15 -80 -15 l-80 0 0
145 0 145 80 0 c63 0 80 -3 80 -15z m205 2 c24 -18 11 -41 -15 -27 -29 16 -58
12 -80 -10 -16 -16 -20 -33 -20 -93 0 -85 16 -117 59 -117 37 0 60 19 67 58 6
31 5 32 -25 32 -21 0 -31 5 -31 15 0 11 12 15 46 15 l47 0 -5 -52 c-4 -40 -11
-57 -32 -75 -41 -35 -110 -28 -143 16 -8 10 -12 51 -13 104 0 85 1 90 29 118
33 32 83 39 116 16z m337 -131 c27 -77 46 -141 44 -144 -12 -11 -35 9 -41 37
-6 30 -8 31 -65 31 -57 0 -59 -1 -65 -31 -6 -27 -29 -48 -40 -37 -4 4 21 81
90 276 11 32 31 -3 77 -132z m-1214 -5 c-1 -5 -76 -79 -165 -165 l-161 -156
-170 2 -169 3 168 163 168 162 166 0 c94 0 165 -4 163 -9z"/>
</g>
</svg>
